<svg xmlns="http://www.w3.org/2000/svg" width="516" height="91.56" viewBox="0 0 136.525 24.225">
  <path d="M-.267-.4h137.428v25.217H-.267z" style="fill:#0d1117;fill-opacity:1;stroke-width:.264583"/>
  <path d="M39.1 363.282h-5.426v5.42H32.52v-6.58h6.58zm0 0v-1.16h6.58v6.58h-1.16v-5.42zm12 0v-1.16h12v1.16zm24 0h-5.426v5.42H68.52v-6.58h6.58zm0 0v-1.16h6.58v6.58h-1.16v-5.42zm12 0v-1.16h12v1.16zm12 0v-1.16h12v1.16zm12 0v-1.16h12v1.16zm12 0v-1.16h12v1.16zm24 0h-5.426v5.42h-1.154v-6.58h6.58zm0 0v-1.16h6.58v6.58h-1.16v-5.42zm12 0v-1.16h12v1.16zm24 0h-5.426v5.42h-1.154v-6.58h6.58zm0 0v-1.16h6.58v6.58h-1.16v-5.42zm12 0v-1.16h12v1.16zm12 0v-1.16h12v1.16zm12 0v-1.16h12v1.16zm12 0v-1.16h12v1.16zm12 0v-1.16h12v1.16zm12 0v-1.16h12v1.16zm12 0v-1.16h12v1.16zm12 0v-1.16h12v1.16zm12 0v-1.16h12v1.16zm24 0h-5.426v5.42h-1.154v-6.58h6.58zm0 0v-1.16h6.58v6.58h-1.16v-5.42zm24 0h-5.426v5.42h-1.154v-6.58h6.58zm0 0v-1.16h6.58v6.58h-1.16v-5.42zm24 0h-5.426v5.42h-1.154v-6.58h6.58zm0 0v-1.16h6.58v6.58h-1.16v-5.42zm12 0v-1.16h12v1.16zm12 0v-1.16h12v1.16zm12 0v-1.16h12v1.16zm12 0v-1.16h12v1.16zm12 0v-1.16h12v1.16zm12 0v-1.16h12v1.16zm12 0v-1.16h12v1.16zm24 0h-5.426v5.42h-1.154v-6.58h6.58zm0 0v-1.16h6.58v6.58h-1.16v-5.42zm12 0v-1.16h12v1.16zm12 0v-1.16h12v1.16zm12 0v-1.16h12v1.16zm24 0h-5.426v5.42h-1.154v-6.58h6.58zm0 0v-1.16h6.58v6.58h-1.16v-5.42zM32.52 383.77v-12h1.154v12zm12 0v-12h1.154v12zm6.58-5.42v-1.16h12v1.16zm17.42 5.42v-12h1.154v12zm12 0v-12h1.154v12zm6.58-5.42v-1.16h12v1.16zm12 0v-1.16h12v1.16zm12 0v-1.16h12v1.16zm12 0v-1.16h12v1.16zm17.42 5.42v-12h1.154v12zm12 0v-12h1.154v12zm6.58-5.42v-1.16h12v1.16zm17.42 5.42v-12h1.154v12zm12 0v-12h1.154v12zm6.58-5.42v-1.16h12v1.16zm12 0v-1.16h12v1.16zm12 0v-1.16h12v1.16zm12 0v-1.16h12v1.16zm12 0v-1.16h12v1.16zm12 0v-1.16h12v1.16zm12 0v-1.16h12v1.16zm12 0v-1.16h12v1.16zm12 0v-1.16h12v1.16zm17.42 5.42v-12h1.154v12zm12 0v-12h1.154v12zm12 0v-12h1.154v12zm12 0v-12h1.154v12zm12 0v-12h1.154v12zm12 0v-12h1.154v12zm6.58-5.42v-1.16h12v1.16zm12 0v-1.16h12v1.16zm12 0v-1.16h12v1.16zm12 0v-1.16h12v1.16zm12 0v-1.16h12v1.16zm12 0v-1.16h12v1.16zm12 0v-1.16h12v1.16zm17.42 5.42v-12h1.154v12zm12 0v-12h1.154v12zm6.58-5.42v-1.16h12v1.16zm12 0v-1.16h12v1.16zm12 0v-1.16h12v1.16zm17.42 5.42v-12h1.154v12zm12 0v-12h1.154v12zm-504 15.066v-12h1.154v12zm18.58-5.42h-6.58v-6.58h1.154v5.42H51.1zm0 0v-1.16h12v1.16zm12 0v-1.16h5.42v-5.42h1.16v6.58zm17.42 5.42v-12h1.154v12zm18.58-5.42h-5.426v5.42H92.52v-6.58h6.58zm0 0v-1.16h12v1.16zm12 0v-1.16h12v1.16zm12 0v-1.16h6.58v6.58h-1.16v-5.42zm17.42 5.42v-12h1.154v12zm12 0v-12h1.154v12zm6.58-5.42v-1.16h12v1.16zm17.42 5.42v-12h1.154v12zm12 0v-12h1.154v12zm6.58-5.42v-1.16h12v1.16zm24 0h-5.426v5.42h-1.154v-6.58h6.58zm0 0v-1.16h12v1.16zm12 0v-1.16h12v1.16zm12 0v-1.16h6.58v6.58h-1.16v-5.42zm12 0v-1.16h12v1.16zm12 0v-1.16h12v1.16zm12 0v-1.16h12v1.16zm12 0v-1.16h12v1.16zm17.42 5.42v-12h1.154v12zm12 0v-12h1.154v12zm12 0v-12h1.154v12zm12 0v-12h1.154v12zm12 0v-12h1.154v12zm12 0v-12h1.154v12zm18.58-5.42h-5.426v5.42h-1.154v-6.58h6.58zm0 0v-1.16h12v1.16zm12 0v-1.16h12v1.16zm12 0v-1.16h6.58v6.58h-1.16v-5.42zm24 0h-5.426v5.42h-1.154v-6.58h6.58zm0 0v-1.16h12v1.16zm12 0v-1.16h6.58v6.58h-1.16v-5.42zm17.42 5.42v-12h1.154v12zm12 0v-12h1.154v12zm6.58-5.42v-1.16h12v1.16zm24 0h-5.426v5.42h-1.154v-6.58h6.58zm0 0v-1.16h12v1.16zm12 0v-1.16h5.42v-5.42h1.16v6.58zm17.42 5.42v-12h1.154v12zm-504 15.067v-12h1.154v12zm18.58-5.42h-5.426v5.42H44.52v-6.58h6.58zm0 0v-1.16h12v1.16zm12 0v-1.16h6.58v6.58h-1.16v-5.42zm17.42 5.42v-12h1.154v12zm12 0v-12h1.154v12zm18.58-5.42h-5.426v5.42h-1.154v-6.58h6.58zm0 0v-1.16h6.58v6.58h-1.16v-5.42zm17.42 5.42v-12h1.154v12zm12 0v-12h1.154v12zm12 0v-12h1.154v12zm6.58-5.42v-1.16h12v1.16zm17.42 5.42v-12h1.154v12zm12 0v-12h1.154v12zm6.58-5.42v-1.16h12v1.16zm17.42 5.42v-12h1.154v12zm18.58-5.42h-5.426v5.42h-1.154v-6.58h6.58zm0 0v-1.16h6.58v6.58h-1.16v-5.42zm17.42 5.42v-12h1.154v12zm6.58-5.42v-1.16h12v1.16zm12 0v-1.16h12v1.16zm12 0v-1.16h12v1.16zm12 0v-1.16h12v1.16zm17.42 5.42v-12h1.154v12zm18.58-5.42h-6.58v-6.58h1.154v5.42h5.426zm0 0v-1.16h5.42v-5.42h1.16v6.58zm24 0h-6.58v-6.58h1.154v5.42h5.426zm0 0v-1.16h5.42v-5.42h1.16v6.58zm17.42 5.42v-12h1.154v12zm12 0v-12h1.154v12zm18.58-5.42h-5.426v5.42h-1.154v-6.58h6.58zm0 0v-1.16h6.58v6.58h-1.16v-5.42zm17.42 5.42v-12h1.154v12zm12 0v-12h1.154v12zm18.58-5.42h-5.426v5.42h-1.154v-6.58h6.58zm0 0v-1.16h5.42v-5.42h1.16v6.58zm17.42 5.42v-12h1.154v12zm12 0v-12h1.154v12zm6.58-5.42v-1.16h12v1.16zm17.42 5.42v-12h1.154v12zm18.58-5.42h-5.426v5.42h-1.154v-6.58h6.58zm0 0v-1.16h6.58v6.58h-1.16v-5.42zm17.42 5.42v-12h1.154v12zm-504 15.067v-12h1.154v12zm12 0v-12h1.154v12zm6.58-5.42v-1.16h12v1.16zm17.42 5.42v-12h1.154v12zm12 0v-12h1.154v12zm12 0v-12h1.154v12zm12 0v-12h1.154v12zm6.58-5.42v-1.16h12v1.16zm17.42 5.42v-5.42h-5.42v-1.16h5.42v-5.42h1.16v12zm12 0v-12h1.154v12zm18.58-5.42h-6.58v-6.58h1.154v5.42h5.426zm0 0v-1.16h6.58v6.58h-1.16v-5.42zm17.42 5.42v-12h1.154v12zm18.58-5.42h-6.58v-6.58h1.154v5.42h5.426zm0 0v-1.16h6.58v6.58h-1.16v-5.42zm17.42 5.42v-12h1.154v12zm18.58-5.42h-6.58v-6.58h1.154v5.42h5.426zm0 0v-1.16h5.42v-5.42h1.16v6.58zm17.42 5.42v-12h1.154v12zm6.58-5.42v-1.16h12v1.16zm12 0v-1.16h12v1.16zm12 0v-1.16h12v1.16zm12 0v-1.16h12v1.16zm24 0h-6.58v-6.58h1.154v5.42h5.426zm0 0v-1.16h6.58v6.58h-1.16v-5.42zm24 0h-5.426v5.42h-1.154v-6.58h6.58zm0 0v-1.16h6.58v6.58h-1.16v-5.42zm24 0h-5.426v5.42h-1.154v-6.58h6.58zm0 0v-1.16h5.42v-5.42h1.16v6.58zm17.42 5.42v-12h1.154v12zm18.58-5.42h-6.58v-6.58h1.154v5.42h5.426zm0 0v-1.16h5.42v-5.42h1.16v6.58zm17.42 5.42v-12h1.154v12zm12 0v-12h1.154v12zm12 0v-12h1.154v12zm6.58-5.42v-1.16h12v1.16zm17.42 5.42v-12h1.154v12zm18.58-5.42h-6.58v-6.58h1.154v5.42h5.426zm0 0v-1.16h6.58v6.58h-1.16v-5.42zm17.42 5.42v-12h1.154v12zm18.58-5.42h-6.58v-6.58h1.154v5.42h5.426zm0 0v-1.16h5.42v-5.42h1.16v6.58zm17.42 5.42v-12h1.154v12zM39.1 438.615h-6.58v-6.58h1.154v5.42H39.1zm0 0v-1.16h5.42v-5.42h1.16v6.58zm12 0v-1.16h12v1.16zm24 0h-6.58v-6.58h1.154v5.42H75.1zm0 0v-1.16h5.42v-5.42h1.16v6.58zm24 0h-6.58v-6.58h1.154v5.42H99.1zm0 0v-1.16h12v1.16zm12 0v-1.16h12v1.16zm12 0v-1.16h5.42v-5.42h1.16v6.58zm24 0h-6.58v-6.58h1.154v5.42h5.426zm0 0v-1.16h12v1.16zm12 0v-1.16h5.42v-5.42h1.16v6.58zm24 0h-6.58v-6.58h1.154v5.42h5.426zm0 0v-1.16h12v1.16zm12 0v-1.16h5.42v-5.42h1.16v6.58zm24 0h-6.58v-6.58h1.154v5.42h5.426zm0 0v-1.16h12v1.16zm12 0v-1.16h12v1.16zm12 0v-1.16h5.42v-5.42h1.16v6.58zm12 0v-1.16h12v1.16zm12 0v-1.16h12v1.16zm12 0v-1.16h12v1.16zm12 0v-1.16h12v1.16zm12 0v-1.16h12v1.16zm24 0h-6.58v-6.58h1.154v5.42h5.426zm0 0v-1.16h5.42v-5.42h1.16v6.58zm24 0h-6.58v-6.58h1.154v5.42h5.426zm0 0v-1.16h5.42v-5.42h1.16v6.58zm12 0v-1.16h12v1.16zm24 0h-6.58v-6.58h1.154v5.42h5.426zm0 0v-1.16h12v1.16zm12 0v-1.16h12v1.16zm12 0v-1.16h5.42v-5.42h1.16v6.58zm24 0h-6.58v-6.58h1.154v5.42h5.426zm0 0v-1.16h5.42v-5.42h1.16v6.58zm12 0v-1.16h12v1.16zm24 0h-6.58v-6.58h1.154v5.42h5.426zm0 0v-1.16h12v1.16zm12 0v-1.16h5.42v-5.42h1.16v6.58zm24 0h-6.58v-6.58h1.154v5.42h5.426zm0 0v-1.16h12v1.16zm12 0v-1.16h12v1.16zm12 0v-1.16h5.42v-5.42h1.16v6.58zm-504 15.067v-1.16h12v1.16zm12 0v-1.16h12v1.16zm12 0v-1.16h12v1.16zm12 0v-1.16h12v1.16zm12 0v-1.16h12v1.16zm12 0v-1.16h12v1.16zm12 0v-1.16h12v1.16zm12 0v-1.16h12v1.16zm12 0v-1.16h12v1.16zm12 0v-1.16h12v1.16zm12 0v-1.16h12v1.16zm12 0v-1.16h12v1.16zm12 0v-1.16h12v1.16zm12 0v-1.16h12v1.16zm12 0v-1.16h12v1.16zm12 0v-1.16h12v1.16zm12 0v-1.16h12v1.16zm12 0v-1.16h12v1.16zm12 0v-1.16h12v1.16zm12 0v-1.16h12v1.16zm12 0v-1.16h12v1.16zm12 0v-1.16h12v1.16zm12 0v-1.16h12v1.16zm12 0v-1.16h12v1.16zm12 0v-1.16h12v1.16zm12 0v-1.16h12v1.16zm12 0v-1.16h12v1.16zm12 0v-1.16h12v1.16zm12 0v-1.16h12v1.16zm12 0v-1.16h12v1.16zm12 0v-1.16h12v1.16zm12 0v-1.16h12v1.16zm12 0v-1.16h12v1.16zm12 0v-1.16h12v1.16zm12 0v-1.16h12v1.16zm12 0v-1.16h12v1.16zm12 0v-1.16h12v1.16zm12 0v-1.16h12v1.16zm12 0v-1.16h12v1.16zm12 0v-1.16h12v1.16zm12 0v-1.16h12v1.16zm12 0v-1.16h12v1.16zm12 0v-1.16h12v1.16z" aria-label="┏┓━┏┓━━━━┏┓━┏┓━━━━━━━━━┏┓┏┓┏┓━━━━━━━┏┓━━━┏┓ ┃┃━┃┃━━━━┃┃━┃┃━━━━━━━━━┃┃┃┃┃┃━━━━━━━┃┃━━━┃┃ ┃┗━┛┃┏━━┓┃┃━┃┃━┏━━┓━━━━┃┃┃┃┃┃┏━━┓┏━┓┃┃━┏━┛┃ ┃┏━┓┃┃┏┓┃┃┃━┃┃━┃┏┓┃━━━━┃┗┛┗┛┃┃┏┓┃┃┏┛┃┃━┃┏┓┃ ┃┃━┃┃┃┃━┫┃┗┓┃┗┓┃┗┛┃━━━━┗┓┏┓┏┛┃┗┛┃┃┃━┃┗┓┃┗┛┃ ┗┛━┗┛┗━━┛┗━┛┗━┛┗━━┛━━━━━┗┛┗┛━┗━━┛┗┛━┗━┛┗━━┛ ━━━━━━━━━━━━━━━━━━━━━━━━━━━━━━━━━━━━━━━━━━━" style="white-space:pre;fill:#379b8a" transform="matrix(.26458 0 0 .26458 -7.17 -95.811)"/>
</svg>
